<mxfile host="app.diagrams.net" modified="2023-12-24T17:33:17.749Z" agent="Mozilla/5.0 (Windows NT 10.0; Win64; x64) AppleWebKit/537.36 (KHTML, like Gecko) Chrome/120.0.0.0 Safari/537.36" etag="Q4DXJXZqGhBFNHOZQCZ1" version="22.1.11" type="device">
  <diagram name="Page-1" id="BSbu1Kt3Bp4ArYt2ESW5">
    <mxGraphModel dx="474" dy="787" grid="1" gridSize="10" guides="1" tooltips="1" connect="1" arrows="1" fold="1" page="1" pageScale="1" pageWidth="850" pageHeight="1100" math="0" shadow="0">
      <root>
        <mxCell id="0" />
        <mxCell id="1" parent="0" />
        <mxCell id="zdHg10XPLROxAjpq0C63-1" value="Cell" style="swimlane;fontStyle=1;align=center;verticalAlign=top;childLayout=stackLayout;horizontal=1;startSize=26;horizontalStack=0;resizeParent=1;resizeParentMax=0;resizeLast=0;collapsible=1;marginBottom=0;whiteSpace=wrap;html=1;" vertex="1" parent="1">
          <mxGeometry x="240" y="320" width="160" height="180" as="geometry" />
        </mxCell>
        <mxCell id="zdHg10XPLROxAjpq0C63-2" value="+ int[] Position&lt;br&gt;+ bool IsDiscovered&lt;br&gt;+ bool IsLive&lt;br&gt;+ int NumLiveNeighbors" style="text;strokeColor=none;fillColor=none;align=left;verticalAlign=top;spacingLeft=4;spacingRight=4;overflow=hidden;rotatable=0;points=[[0,0.5],[1,0.5]];portConstraint=eastwest;whiteSpace=wrap;html=1;" vertex="1" parent="zdHg10XPLROxAjpq0C63-1">
          <mxGeometry y="26" width="160" height="74" as="geometry" />
        </mxCell>
        <mxCell id="zdHg10XPLROxAjpq0C63-3" value="" style="line;strokeWidth=1;fillColor=none;align=left;verticalAlign=middle;spacingTop=-1;spacingLeft=3;spacingRight=3;rotatable=0;labelPosition=right;points=[];portConstraint=eastwest;strokeColor=inherit;" vertex="1" parent="zdHg10XPLROxAjpq0C63-1">
          <mxGeometry y="100" width="160" height="8" as="geometry" />
        </mxCell>
        <mxCell id="zdHg10XPLROxAjpq0C63-4" value="+ Cell(position, isDiscovered, isLive, numLiveNeighbors&lt;br&gt;+ Cell()" style="text;strokeColor=none;fillColor=none;align=left;verticalAlign=top;spacingLeft=4;spacingRight=4;overflow=hidden;rotatable=0;points=[[0,0.5],[1,0.5]];portConstraint=eastwest;whiteSpace=wrap;html=1;" vertex="1" parent="zdHg10XPLROxAjpq0C63-1">
          <mxGeometry y="108" width="160" height="72" as="geometry" />
        </mxCell>
        <mxCell id="zdHg10XPLROxAjpq0C63-5" value="Board" style="swimlane;fontStyle=1;align=center;verticalAlign=top;childLayout=stackLayout;horizontal=1;startSize=26;horizontalStack=0;resizeParent=1;resizeParentMax=0;resizeLast=0;collapsible=1;marginBottom=0;whiteSpace=wrap;html=1;" vertex="1" parent="1">
          <mxGeometry x="240" y="40" width="160" height="200" as="geometry" />
        </mxCell>
        <mxCell id="zdHg10XPLROxAjpq0C63-6" value="+ int Size&lt;br&gt;+ Cell[ , ] CellGrid&lt;br&gt;+ int Difficulty" style="text;strokeColor=none;fillColor=none;align=left;verticalAlign=top;spacingLeft=4;spacingRight=4;overflow=hidden;rotatable=0;points=[[0,0.5],[1,0.5]];portConstraint=eastwest;whiteSpace=wrap;html=1;" vertex="1" parent="zdHg10XPLROxAjpq0C63-5">
          <mxGeometry y="26" width="160" height="64" as="geometry" />
        </mxCell>
        <mxCell id="zdHg10XPLROxAjpq0C63-7" value="" style="line;strokeWidth=1;fillColor=none;align=left;verticalAlign=middle;spacingTop=-1;spacingLeft=3;spacingRight=3;rotatable=0;labelPosition=right;points=[];portConstraint=eastwest;strokeColor=inherit;" vertex="1" parent="zdHg10XPLROxAjpq0C63-5">
          <mxGeometry y="90" width="160" height="8" as="geometry" />
        </mxCell>
        <mxCell id="zdHg10XPLROxAjpq0C63-8" value="+ Board(size)&lt;br&gt;- populateCellGrid()&lt;br&gt;+ setupLiveNeighbors()&lt;br&gt;+calculateLiveNeighbors()&lt;br&gt;- isValidCell()" style="text;strokeColor=none;fillColor=none;align=left;verticalAlign=top;spacingLeft=4;spacingRight=4;overflow=hidden;rotatable=0;points=[[0,0.5],[1,0.5]];portConstraint=eastwest;whiteSpace=wrap;html=1;" vertex="1" parent="zdHg10XPLROxAjpq0C63-5">
          <mxGeometry y="98" width="160" height="102" as="geometry" />
        </mxCell>
        <mxCell id="zdHg10XPLROxAjpq0C63-9" value="" style="endArrow=block;startArrow=block;endFill=1;startFill=1;html=1;rounded=0;entryX=0.5;entryY=0;entryDx=0;entryDy=0;exitX=0.506;exitY=1.01;exitDx=0;exitDy=0;exitPerimeter=0;" edge="1" parent="1" source="zdHg10XPLROxAjpq0C63-8" target="zdHg10XPLROxAjpq0C63-1">
          <mxGeometry width="160" relative="1" as="geometry">
            <mxPoint x="150" y="260" as="sourcePoint" />
            <mxPoint x="310" y="260" as="targetPoint" />
          </mxGeometry>
        </mxCell>
      </root>
    </mxGraphModel>
  </diagram>
</mxfile>
